<svg xmlns="http://www.w3.org/2000/svg" width="50" height="14" viewBox="0 0 50 14">
    <g fill="none" fill-rule="evenodd">
        <path fill="#212121" fill-rule="nonzero" d="M4.042 0S8.033 7.445 8 9.761c-.017 2.317-1.836 4.174-4.042 4.156C1.752 13.899-.017 11.989 0 9.673.034 7.356 4.042 0 4.042 0z"/>
        <path stroke="#212121" d="M24.537 1S28.029 7.584 28 9.632c-.015 2.05-1.606 3.691-3.537 3.676-1.93-.016-3.478-1.705-3.463-3.754C21.03 7.506 24.537 1 24.537 1zM45.537 1S49.029 7.584 49 9.632c-.015 2.05-1.606 3.691-3.537 3.676-1.93-.016-3.478-1.705-3.463-3.754C42.03 7.506 45.537 1 45.537 1z"/>
    </g>
</svg>
