<svg xmlns="http://www.w3.org/2000/svg" width="117" height="176" viewBox="0 0 117 176">
    <g fill="#C2E0DE" fill-rule="nonzero">
        <path d="M68.107 124.717c-4.468-1.82-9.088-.708-12.416 2.806-3.328-3.514-7.954-4.628-12.416-2.806-4.73 1.928-9.02 7.508-7.257 15.203 2.806 12.267 17.945 21.053 18.588 21.422a2.183 2.183 0 0 0 2.17 0c.643-.369 15.782-9.155 18.588-21.422 1.763-7.695-2.526-13.275-7.257-15.203zm3 14.226c-1.984 8.68-12.061 15.782-15.416 17.935-3.352-2.153-13.43-9.255-15.417-17.935-1.192-5.206 1.575-8.928 4.65-10.184a6.871 6.871 0 0 1 2.584-.51c2.153 0 4.516 1.054 6.322 4 .793 1.298 2.931 1.296 3.724 0 2.573-4.197 6.281-4.553 8.902-3.487 3.077 1.253 5.844 4.975 4.652 10.181z"/>
        <path d="M4.358 110.414a2.183 2.183 0 0 0-2.184 2.184v17.201c0 24.972 20.318 45.29 45.29 45.29h15.242c24.972 0 45.287-20.318 45.287-45.29v-17.201a2.183 2.183 0 0 0-2.184-2.184H84.074c5.072-8.634 7.834-19.208 7.834-30.231 0-1.896-.09-3.763-.247-5.604 5.972-1.734 11.702-5.447 16.276-10.628 10.701-12.125 11.878-28.636 2.625-36.804-4.578-4.04-10.922-5.46-17.87-3.993-6.709 1.415-13.217 5.382-18.323 11.17a37.77 37.77 0 0 0-1.99 2.474c-2.62-1.885-5.43-3.366-8.378-4.381a26.914 26.914 0 0 0-1.103-2.866c7.913-7.417 9.898-18.326 4.329-24.683-5.718-6.533-17.267-5.819-25.74 1.598-.033.03-.047.072-.08.103-7.919-3.763-16.403-4.228-23.534-.48-6.967 3.66-11.59 10.677-13.015 19.756-1.389 8.84.43 18.63 5.126 27.56a48.28 48.28 0 0 0 9.04 12.147 63.152 63.152 0 0 0-1.007 5.375c-4.962.775-9.452 2.876-12.706 5.99C1.698 80.376 0 84.65.538 88.946c.536 4.298 3.226 8.024 7.575 10.492 3.271 1.854 7.202 2.824 11.321 2.824.603 0 1.217-.072 1.828-.114a53.778 53.778 0 0 0 3.925 8.265H4.358v.002zm99.27 19.385c0 22.565-18.357 40.922-40.92 40.922H47.466c-22.565 0-40.922-18.357-40.922-40.922v-15.017h97.086v15.017h-.002zM77.649 37.217c4.49-5.086 10.153-8.561 15.952-9.784 5.558-1.18 10.562-.112 14.074 2.992 7.45 6.574 6.1 20.32-3.01 30.64-3.848 4.358-8.587 7.545-13.521 9.133-1.972-12.646-7.614-23.53-15.375-30.631a32.684 32.684 0 0 1 1.88-2.35zM63.947 7.744c3.82 4.366 2.347 12.027-3.154 17.767-3.964-7.177-9.365-12.86-15.319-16.655C51.967 3.85 60.031 3.28 63.947 7.744zm-50.09 43.63c-4.26-8.105-5.921-16.933-4.679-24.85 1.208-7.681 5.02-13.565 10.73-16.568 12.025-6.318 28.866 1.983 37.548 18.505l.137.267a62.112 62.112 0 0 1 1.236 2.43 28.49 28.49 0 0 0-4.2-.32c-15.335 0-28.533 12.326-34.249 29.885a44.652 44.652 0 0 1-6.524-9.35zM10.274 95.64c-3.121-1.769-5.037-4.337-5.397-7.233-.36-2.894.865-5.853 3.457-8.332 2.36-2.258 5.587-3.813 9.193-4.578a66.268 66.268 0 0 0-.173 4.685c0 6.113.863 12.08 2.483 17.664-3.507.063-6.846-.664-9.563-2.206zm11.448-15.458c0-24.802 14.764-44.98 32.909-44.98 18.149 0 32.91 20.178 32.91 44.98 0 11.232-3.083 21.903-8.655 30.23H30.378c-5.57-8.327-8.655-18.998-8.655-30.23z"/>
    </g>
</svg>
