<svg xmlns="http://www.w3.org/2000/svg" width="50" height="14" viewBox="0 0 50 14">
    <g fill="#212121" fill-rule="nonzero">
        <path d="M4.042 0S8.033 7.445 8 9.761c-.017 2.317-1.836 4.174-4.042 4.156C1.752 13.899-.017 11.989 0 9.673.034 7.356 4.042 0 4.042 0zM25.042 0S29.033 7.445 29 9.761c-.017 2.317-1.836 4.174-4.042 4.156-2.206-.018-3.975-1.928-3.958-4.244C21.034 7.356 25.042 0 25.042 0zM45.042 0S49.033 7.445 49 9.761c-.017 2.317-1.836 4.174-4.042 4.156-2.206-.018-3.975-1.928-3.958-4.244C41.034 7.356 45.042 0 45.042 0z"/>
    </g>
</svg>
