<svg xmlns="http://www.w3.org/2000/svg" width="29" height="26" viewBox="0 0 29 26">
    <path fill="#000" fill-rule="nonzero" stroke="#000" stroke-width=".25" d="M14.25.656h-3.938L8.25 6.75h11.906L18.188.656H14.25zm-6 6.75l6 17.063 5.906-17.063H8.25zM.094 7.313C0 7.125 0 6.938.094 6.843L4.875.189 5.063 0h18.28l.282.188 4.781 6.656c.094.093.094.281 0 .468L14.438 25.595h-.47L.095 7.312zm.844-.563h6.656L9.656.656H5.25L.937 6.75zm19.875 0h6.75L23.155.656h-4.312l1.968 6.094zm6.656.656h-6.657l-5.625 16.219L27.47 7.406zm-19.875 0H.937l12.376 16.219-5.72-16.219z"/>
</svg>
