<svg xmlns="http://www.w3.org/2000/svg" width="242" height="237" viewBox="0 0 242 237">
    <path fill="#C2E0DE" fill-rule="nonzero" d="M16.318 143.496c9.331 7.867 21.91 9.884 32.351 9.884 6.624 0 12.38-.81 15.904-1.452v41.887c-19.944 1.38-35.872 17.359-37.098 37.27H6.456a2.96 2.96 0 0 0-2.969 2.958A2.96 2.96 0 0 0 6.456 237h231.566a2.96 2.96 0 0 0 2.968-2.957 2.96 2.96 0 0 0-2.968-2.958h-19.654c-1.172-13.183-11.679-23.729-24.884-25v-28.532c2.618.458 6.65.996 11.296.996 7.746 0 17.11-1.502 24.068-7.372 13.924-11.747 12.116-35.804 12.033-36.824a2.966 2.966 0 0 0-2.233-2.627c-.997-.245-24.522-6.003-38.449 5.746-2.862 2.414-5.029 5.36-6.715 8.509v-14.447c4.483-3.507 19.398-16.38 19.398-32.314 0-18.35-19.799-32.657-20.642-33.258a2.984 2.984 0 0 0-3.453 0c-.84.6-20.636 14.908-20.636 33.258 0 15.937 14.915 28.807 19.395 32.314v13.403c-1.6-2.754-3.61-5.318-6.154-7.465-13.92-11.752-37.448-5.991-38.446-5.746a2.962 2.962 0 0 0-2.232 2.627c-.084 1.02-1.895 25.077 12.03 36.827 6.964 5.87 16.322 7.37 24.067 7.37 4.335 0 8.117-.468 10.735-.906v28.509c-12.938 1.514-23.168 11.935-24.323 24.93h-31.065c-1.253-14.16-13.206-25.306-27.74-25.306-2.54 0-4.873.21-7.485.988-6.662-7.293-15.972-12.12-26.42-12.935v-42.05c3.418.656 9.542 1.597 16.676 1.597 10.441 0 23.023-2.017 32.351-9.886 18.715-15.786 16.266-48.328 16.15-49.707a2.97 2.97 0 0 0-2.232-2.626c-1.348-.34-33.162-8.114-51.88 7.672-5.112 4.311-8.636 9.874-11.07 15.709V89.28c5.403-4.153 26.674-21.887 26.674-43.898C97.182 20.716 70.404 1.36 69.267.55a2.989 2.989 0 0 0-3.456 0c-1.14.81-27.913 20.166-27.913 44.833 0 22.014 21.275 39.751 26.672 43.9v23.496c-2.39-5.184-5.703-10.072-10.299-13.946C35.553 83.05 3.74 90.824 2.391 91.16A2.966 2.966 0 0 0 .16 93.787c-.104 1.379-2.556 33.92 16.16 49.71zm187.132-1.856c9.732-8.021 26.135-6.068 32.067-5.018.086 5.864-.617 21.924-10.38 29.975-9.73 8.02-26.123 6.068-32.058 5.02-.082-5.873.642-21.95 10.371-29.977zm-28.177-43.688c0-12.265 11.899-23.05 16.433-26.715 4.537 3.656 16.43 14.415 16.43 26.715 0 12.263-11.896 23.045-16.433 26.713-4.537-3.668-16.43-14.45-16.43-26.713zm-19.038 68.636c-9.112-8.024-9.788-24.095-9.713-29.967 5.558-1.05 20.914-3.002 30.026 5.02v.002c7.865 6.918 9.443 19.821 9.68 27.008v2.969c-5.57 1.046-20.863 2.995-29.993-5.032zm35.471 45.753c11.317 0 20.662 8.403 21.908 19.18h-43.819c1.246-10.777 10.592-19.18 21.911-19.18zm-86.984 0c10.987 0 20.056 8.406 21.255 19.18h-18.479c-.423-6.96-2.616-13.43-6.168-18.958 1.005-.146 2.083-.222 3.392-.222zm-3.392 19.18H32.864c1.28-17.583 16.124-31.51 34.233-31.51 18.108 0 32.951 13.927 34.233 31.51zM85.454 104.26c13.868-11.555 37.418-8.215 44.607-6.846.185 7.2-.348 30.614-14.217 42.172-13.865 11.56-37.424 8.215-44.613 6.846-.194-7.198.319-30.59 14.223-42.172zM43.818 45.21c0-18.104 17.66-33.819 23.28-38.36 5.624 4.535 23.277 20.217 23.277 38.36 0 18.104-17.662 33.815-23.283 38.356-5.624-4.532-23.274-20.214-23.274-38.356zM5.502 97.425c7.184-1.374 30.736-4.736 44.654 6.847 11.578 9.627 13.865 27.46 14.202 37.31v4.85c-7.223 1.372-30.724 4.716-44.621-6.852C5.845 128.028 5.314 104.62 5.502 97.425z" opacity=".5"/>
</svg>
