<svg xmlns="http://www.w3.org/2000/svg" width="29" height="27" viewBox="0 0 29 27">
    <g fill="#000" fill-rule="nonzero" stroke="#000" stroke-width=".25">
        <path d="M9.525 7.725c1.5 0 2.7-1.2 2.7-2.7 0-1.35-2.175-3.825-2.4-4.125l-.3-.3-.3.3c-.225.225-2.4 2.775-2.4 4.125 0 1.5 1.2 2.7 2.7 2.7zm0-6c.825.975 1.95 2.55 1.95 3.3 0 1.05-.9 1.95-1.95 1.95-1.05 0-1.95-.9-1.95-1.95 0-.75 1.125-2.25 1.95-3.3zM9.15 12.825h.75c0-1.125.9-2.025 2.025-2.025 1.05 0 2.025.975 2.025 2.025 0 1.125-.9 2.025-2.025 2.025H.975v.75h10.95c1.5 0 2.775-1.275 2.775-2.775s-1.275-2.775-2.775-2.775-2.775 1.275-2.775 2.775zM16.275 19.425H.975v.75h15.3c1.65 0 3 1.35 3 3s-1.35 3-3 3-3-1.35-3-3h-.75c0 2.1 1.65 3.75 3.75 3.75s3.75-1.65 3.75-3.75-1.65-3.75-3.75-3.75zM3.375 12.675c1.5 0 2.7-1.2 2.7-2.7 0-1.35-2.25-3.825-2.475-4.125l-.3-.3-.3.3C2.775 6.075.6 8.625.6 9.975c0 1.5 1.275 2.7 2.775 2.7zm-.075-6c.9.975 2.025 2.55 2.025 3.3 0 1.05-.9 1.95-1.95 1.95-1.125 0-2.025-.9-2.025-1.95 0-.675 1.125-2.25 1.95-3.3z"/>
        <path d="M22.8 7.5a5.218 5.218 0 0 0-5.25 5.25h.75c0-2.475 2.025-4.5 4.5-4.5s4.5 2.025 4.5 4.5-2.025 4.5-4.5 4.5H.975V18H22.8a5.218 5.218 0 0 0 5.25-5.25A5.218 5.218 0 0 0 22.8 7.5z"/>
    </g>
</svg>
