<svg xmlns="http://www.w3.org/2000/svg" width="39" height="30" viewBox="0 0 39 30">
    <path fill="#212121" fill-rule="nonzero" d="M38.168 22.489c-.331-1.218-.911-1.633-1.584-2.114-.337-.24-.514-.586-.498-.973.024-.566.435-1.127 1.11-1.53.6-.326.882-1.02.656-1.612-.183-.48-.73-.91-1.71-.683-.887.208-1.675.993-2.16 2.153-.436 1.039-.64 2.472-.116 3.334.332.545.509.791 1.584 1.438.147.088.342.25.333.634-.013.58-.477 1.258-.882 1.477a.944.944 0 0 1-.046.022c-.633-3.445-4.62-8.124-7.358-9.286a.846.846 0 0 1-.073-.1.545.545 0 0 0-.172-.17c.009-.45.112-.93.203-1.33.028-.124.054-.238.074-.34.177-.89-.028-1.437-.402-2.43l-.097-.259c-.012-.04-.029-.12-.052-.227-.288-1.323-.644-2.622-1.543-2.713-.835-.077-1.55 1.107-2.04 2.252-.727.053-2.102.284-2.37 1.283-.16.592-.683 1.018-.996 1.274-.217.176-.36.293-.42.508-.148.53-.046 1.518.377 2.251.274.475.653.786 1.096.902.273.07.607.549.812 1.161.03.09.086.163.15.224.002.006 0 .01 0 .015.421 1.982.287 6.676.242 8.219-.01.363-.015.593-.012.635a.79.79 0 0 1-.044.242c-.06.218-.16.58.08.977.574.945 1.736.733 2.107.668.129-.017.671.068 1.145.14 1.039.156 2.572.387 4.154.387 1.275 0 2.582-.151 3.685-.612a.636.636 0 0 0 .073-.037c.256-.154.486-.343.684-.562a4 4 0 0 0 .58-.09c2.545-.808 3.91-3.372 3.43-5.128zm-16.802-7.33c-.183-.047-.321-.23-.405-.374-.246-.425-.31-.99-.287-1.272l.065-.053c.391-.318 1.12-.912 1.372-1.855.062-.231.887-.461 1.666-.463.231 0 .438-.142.523-.356.306-.774.753-1.566 1.018-1.823.122.178.314.632.56 1.769.04.186.074.317.09.363l.106.28c.34.902.466 1.24.352 1.813-.019.094-.043.199-.069.313-.097.432-.224.995-.236 1.564-1.105.66-2.361 1.148-3.366 1.475-.252-.536-.697-1.2-1.389-1.38zm13.08 11.372c-.003 0-.28.06-.567.063a.563.563 0 0 0-.443.223c-.142.188-.31.341-.508.466-2.18.89-5.441.398-7.198.134-.65-.099-1.031-.153-1.29-.153-.08 0-.15.005-.211.016-.783.144-.91-.064-.947-.098.002-.022.02-.09.034-.139.04-.147.095-.348.082-.594-.001-.06.005-.254.013-.55.047-1.614.165-5.707-.175-7.981 1.137-.402 2.66-1.177 3.576-1.663.046.038.1.07.156.092 2.504.982 6.53 5.811 6.83 8.846.017.174.114.33.262.422.403.253.89.249 1.374-.013.805-.433 1.452-1.506 1.474-2.441.016-.698-.297-1.275-.88-1.625-.88-.528-.948-.64-1.203-1.06-.226-.37-.216-1.337.193-2.311.34-.812.856-1.37 1.38-1.493.267-.062.39-.02.402-.012.012.028-.012.153-.16.235-1.026.61-1.638 1.507-1.678 2.46-.032.767.32 1.473.968 1.935.598.427.926.663 1.153 1.494.291 1.066-.63 3.108-2.637 3.747zM16.019 13.07c.362-.168.613-.52.613-.932 0-.354-.185-.666-.466-.854.054-.259.177-.579.395-.657.108-.038.315-.093.577-.163 1.351-.361 2.72-.763 3.313-1.358.643-.65 1.13-2.718.48-3.607-.538-.735-2.35-.801-3.414-.777-.292-.582-.78-1.444-1.225-1.717-.43-.264-1.2-.338-1.751-.355-.002-.976-.176-2.168-.984-2.365a.99.99 0 0 0-.768.138c-.984.604-2.098 3.49-3.315 8.56a1.192 1.192 0 0 0-.403.157.534.534 0 0 0-.218.176c-.197.2-.32.469-.32.766 0 .147.032.286.085.415-1.072 2.78-3.944 10.55-4.271 14.75-.908-1.08-1.378-2.524-1.711-3.545-.315-.965-.488-1.497-1.039-1.533-.318-.02-.592.175-.787.584-.744 1.556-.083 5.015 1.263 6.61.885 1.048 2.417 1.4 3.431 1.128.658.395 1.492.54 2.414.54 1.348 0 2.88-.31 4.305-.599 1.222-.247 2.49-.503 3.03-.386.872.19 1.524.085 1.936-.314.47-.451.412-1.068.391-1.21l-1.56-13.451zM13.27 1.469c.11.32.17 1.047.13 1.712a.563.563 0 0 0 .158.428c.111.113.265.183.424.17.645-.025 1.488.045 1.72.187.177.122.625.856.96 1.572.096.207.31.336.537.325 1.251-.065 2.594.082 2.826.308.233.331-.02 1.79-.372 2.146-.426.427-2.033.857-2.805 1.063-.303.082-.544.147-.667.191-.69.247-.974.898-1.091 1.37-1.321-.321-3.157-1.007-4.454-1.521a1.121 1.121 0 0 0-.086-.1c1.282-5.355 2.27-7.399 2.72-7.851zm3.136 25.458c-.032.03-.23.172-.916.023-.771-.167-1.972.075-3.491.383-2.184.443-4.9.993-6.071.091a.561.561 0 0 0-.58-.065c-.458.213-1.723.103-2.416-.718-.855-1.014-1.347-3.03-1.301-4.39.433 1.321 1.153 3.357 2.723 4.563l.193.16a.563.563 0 0 0 .92-.494c-.293-2.64 1.975-9.76 4.085-15.275 1.66.552 4.23 1.391 5.323 1.748l1.59 13.712.003.022c-.002.002.017.168-.062.24z"/>
</svg>
