<svg xmlns="http://www.w3.org/2000/svg" width="37" height="34" viewBox="0 0 37 34">
    <path fill="#000" fill-rule="nonzero" d="M9.456.411c-2.327 0-4.659.952-6.415 2.838-3.514 3.773-3.51 9.79 0 13.566l14.114 15.186a.896.896 0 0 0 1.311 0l14.13-15.172c3.513-3.772 3.513-9.793 0-13.566-3.514-3.773-9.305-3.773-12.818 0l-1.94 2.09-1.966-2.104C14.115 1.363 11.784.411 9.456.411zm0 1.73c1.835 0 3.673.774 5.105 2.312l2.622 2.81a.896.896 0 0 0 1.311 0l2.595-2.796c2.865-3.077 7.344-3.076 10.21 0 2.864 3.077 2.864 8.081 0 11.158-4.492 4.823-8.997 9.643-13.488 14.466L4.35 15.611c-2.863-3.08-2.865-8.081 0-11.158 1.433-1.538 3.27-2.311 5.105-2.311z"/>
</svg>
