<svg xmlns="http://www.w3.org/2000/svg" width="45" height="45" viewBox="0 0 45 45">
    <path fill="#000" fill-rule="nonzero" stroke="#000" stroke-width=".25" d="M31.722 32.661l-2.437-13.194c-.02-.088-.026-.112.07-.214l1.12-1.195c.338-.36.366-.389 1.403-1.502a5.38 5.38 0 0 0 1.382-2.78l.054-.32c.13-.775-.106-1.51-.649-2.018l-.002-.002c-.531-.495-1.257-.68-1.991-.504l-.343.082a5.388 5.388 0 0 0-2.694 1.578l-1.06 1.137-1.492 1.605c-.048.05-.116.056-.165.05-1.622-.162-2.776-.268-3.789-.36-2.458-.225-4.083-.373-9.594-1.087-.96-.124-1.846.164-2.43.79l-1.689 1.81a.374.374 0 0 0 .119.598l10.746 4.897-4.212 4.812-3.114-.961c-.672-.208-1.43.005-1.929.54L7.314 28.26a.375.375 0 0 0 .07.57l5.659 3.668 4.05 5.387a.38.38 0 0 0 .28.149.375.375 0 0 0 .295-.119l1.713-1.837a1.9 1.9 0 0 0 .399-1.977l-1.354-3.2 4.672-4.392 5.655 10.412a.376.376 0 0 0 .604.077l1.683-1.806c.62-.664.88-1.64.682-2.53zm-2.559 3.444l-5.638-10.381a.377.377 0 0 0-.586-.095l-5.217 4.904a.375.375 0 0 0-.089.42l1.452 3.43c.153.39.054.855-.252 1.183l-1.409 1.51-3.822-5.082a.375.375 0 0 0-.096-.09l-5.339-3.46 1.408-1.509c.305-.327.76-.459 1.159-.336l3.346 1.034c.142.043.296 0 .393-.112l4.704-5.374a.374.374 0 0 0-.127-.588l-10.73-4.89 1.334-1.431c.57-.612 1.363-.611 1.784-.557 5.526.716 7.156.864 9.623 1.09 1.011.092 2.162.197 3.782.36a.936.936 0 0 0 .79-.287l1.49-1.603 1.061-1.137a4.639 4.639 0 0 1 2.32-1.36l.342-.082c.485-.116.961.002 1.306.323l.001.001c.356.333.51.823.421 1.345l-.053.321a4.634 4.634 0 0 1-1.191 2.393l-1.401 1.5-1.122 1.195c-.257.274-.335.553-.255.883l2.435 13.187a2.105 2.105 0 0 1-.495 1.87l-1.329 1.425z"/>
</svg>
