<svg xmlns="http://www.w3.org/2000/svg" width="50" height="14" viewBox="0 0 50 14">
    <g fill="none" fill-rule="evenodd">
        <path fill="#00736A" fill-rule="nonzero" d="M4.042 0S8.033 7.445 8 9.761c-.017 2.317-1.836 4.174-4.042 4.156C1.752 13.899-.017 11.989 0 9.673.034 7.356 4.042 0 4.042 0zM25.042 0S29.033 7.445 29 9.761c-.017 2.317-1.836 4.174-4.042 4.156-2.206-.018-3.975-1.928-3.958-4.244C21.034 7.356 25.042 0 25.042 0z"/>
        <path stroke="#00736A" d="M46.042 1S50.033 8.09 50 10.296c-.017 2.207-1.836 3.975-4.042 3.958-2.206-.017-3.975-1.836-3.958-4.042C42.034 8.006 46.042 1 46.042 1z"/>
    </g>
</svg>
