<svg xmlns="http://www.w3.org/2000/svg" width="54" height="14" viewBox="0 0 54 14">
    <g fill="none" fill-rule="evenodd" stroke="#00736A">
        <circle cx="6.813" cy="6.875" r="3.313" fill="#00736A"/>
        <path d="M6.894 2.5V0M6.831 13.75v-2.5M0 6.894h2.5M11.188 6.894h2.5M2.375 2.313l1.313 1.25M10.125 10.188l1.25 1.25M11.313 2.313l-1.25 1.25M3.563 10.125l-1.25 1.25"/>
        <g>
            <g transform="translate(20)">
                <circle cx="6.813" cy="6.875" r="3.313" fill="#00736A"/>
                <path d="M6.894 2.5V0M6.831 13.75v-2.5M0 6.894h2.5M11.188 6.894h2.5M2.375 2.313l1.313 1.25M10.125 10.188l1.25 1.25M11.313 2.313l-1.25 1.25M3.563 10.125l-1.25 1.25"/>
            </g>
        </g>
        <g>
            <g transform="translate(40)">
                <circle cx="6.813" cy="6.875" r="3.313" fill="#00736A"/>
                <path d="M6.894 2.5V0M6.831 13.75v-2.5M0 6.894h2.5M11.188 6.894h2.5M2.375 2.313l1.313 1.25M10.125 10.188l1.25 1.25M11.313 2.313l-1.25 1.25M3.563 10.125l-1.25 1.25"/>
            </g>
        </g>
    </g>
</svg>
